<svg width="143" height="32" viewBox="0 0 143 32" fill="none" xmlns="http://www.w3.org/2000/svg">
<rect y="21.9827" width="142.533" height="9.92769" fill="white"/>
<path d="M16.0702 16.6619V17.728H0V16.6619H2.40556V0.39671H6.27431V14.2816H13.6646V16.6619H16.0702Z" fill="white"/>
<path d="M33.4003 16.6619V17.728H12.9158V16.6619H18.4461C17.0904 15.885 16.0157 14.8188 15.2221 13.4634C14.4451 12.108 14.0565 10.6038 14.0565 8.95079C14.0565 6.40523 14.9328 4.28117 16.6853 2.57862C18.4378 0.859541 20.5954 0 23.158 0C25.7206 0 27.8782 0.859541 29.6307 2.57862C31.3832 4.28117 32.2595 6.40523 32.2595 8.95079C32.2595 10.6038 31.8627 12.108 31.0691 13.4634C30.2755 14.8188 29.2091 15.885 27.8699 16.6619H33.4003ZM28.3163 8.97559C28.3163 7.4218 27.8203 6.09943 26.8284 5.00848C25.8364 3.91752 24.6129 3.37204 23.158 3.37204C21.7196 3.37204 20.5044 3.91752 19.5125 5.00848C18.5205 6.09943 18.0245 7.4218 18.0245 8.97559C18.0245 10.5128 18.5205 11.827 19.5125 12.9179C20.5044 13.9923 21.7196 14.5295 23.158 14.5295C24.6129 14.5295 25.8364 13.9923 26.8284 12.9179C27.8203 11.827 28.3163 10.5128 28.3163 8.97559Z" fill="white"/>
<path d="M51.0122 16.6619V17.728H32.4125V16.6619H37.794C36.4714 15.885 35.4298 14.8353 34.6693 13.513C33.9253 12.1741 33.5533 10.6616 33.5533 8.97559C33.5533 6.43003 34.4296 4.2977 36.1821 2.57862C37.9511 0.859541 40.0756 0 42.5556 0C45.0521 0 47.2179 0.818216 49.0531 2.45465L47.0443 5.3556C46.2673 4.67789 45.5481 4.21506 44.8867 3.96711C44.2419 3.70264 43.5393 3.5704 42.7788 3.5704C41.3073 3.5704 40.0673 4.07455 39.0588 5.08286C38.0503 6.07464 37.5461 7.38874 37.5461 9.02518C37.5461 10.6616 38.0255 11.9757 38.9844 12.9675C39.9599 13.9427 41.1172 14.4304 42.4564 14.4304C43.7956 14.4304 44.9115 14.1742 45.8043 13.6617V8.90121H49.6979V15.0502C49.1357 15.6784 48.4662 16.2156 47.6891 16.6619H51.0122Z" fill="white"/>
<path d="M70.5048 16.6619V17.728H50.0203V16.6619H55.5506C54.1949 15.885 53.1202 14.8188 52.3266 13.4634C51.5496 12.108 51.161 10.6038 51.161 8.95079C51.161 6.40523 52.0373 4.28117 53.7898 2.57862C55.5423 0.859541 57.6999 0 60.2625 0C62.8251 0 64.9827 0.859541 66.7352 2.57862C68.4877 4.28117 69.364 6.40523 69.364 8.95079C69.364 10.6038 68.9672 12.108 68.1736 13.4634C67.38 14.8188 66.3136 15.885 64.9744 16.6619H70.5048ZM65.4208 8.97559C65.4208 7.4218 64.9248 6.09943 63.9328 5.00848C62.9409 3.91752 61.7174 3.37204 60.2625 3.37204C58.8241 3.37204 57.6089 3.91752 56.617 5.00848C55.625 6.09943 55.129 7.4218 55.129 8.97559C55.129 10.5128 55.625 11.827 56.617 12.9179C57.6089 13.9923 58.8241 14.5295 60.2625 14.5295C61.7174 14.5295 62.9409 13.9923 63.9328 12.9179C64.9248 11.827 65.4208 10.5128 65.4208 8.97559Z" fill="white"/>
<path d="M76.0641 16.6619V17.728H69.517V16.6619H76.0641Z" fill="white"/>
<path d="M93.9613 16.6619V17.728H87.9598V10.9096H81.0655V17.728H75.064V16.6619H77.1968V0.39671H81.0655V7.63669H87.9598V0.39671H91.8286V16.6619H93.9613Z" fill="white"/>
<path d="M95.0951 16.6619V0.39671H107.594V3.84314H98.9639V7.41354H106.726V10.7112H98.9639V14.3064H107.867V16.6619H110.272V17.728H92.6896V16.6619H95.0951Z" fill="white"/>
<path d="M110.329 16.6619V0.39671H116.901C119.596 0.39671 121.514 0.851275 122.655 1.7604C123.812 2.66953 124.391 4.13241 124.391 6.14902C124.391 8.926 123.291 10.7195 121.092 11.5294L124.713 16.6619H127.044V17.728H120.721L116.877 12.1989H114.198V17.728H107.924V16.6619H110.329ZM117.025 8.85162C118.348 8.85162 119.249 8.63673 119.729 8.20696C120.208 7.77719 120.448 7.09948 120.448 6.17382C120.448 5.23163 120.2 4.58697 119.704 4.23985C119.208 3.89273 118.34 3.71917 117.1 3.71917H114.198V8.85162H117.025Z" fill="white"/>
<path d="M127.356 16.6619V0.39671H139.855V3.84314H131.225V7.41354H138.987V10.7112H131.225V14.3064H140.128V16.6619H142.533V17.728H124.95V16.6619H127.356Z" fill="white"/>
<path d="M19.3945 28.8772V29.783H15.601V23.7873H16.6729V28.8772H19.3945Z" fill="#095AAA"/>
<path d="M26.8112 23.6876C27.6837 23.6876 28.3748 23.966 28.8845 24.5228C29.397 25.0795 29.6532 25.8344 29.6532 26.7873C29.6532 27.7401 29.397 28.495 28.8845 29.0517C28.3748 29.6057 27.6837 29.8827 26.8112 29.8827C25.9358 29.8827 25.242 29.6057 24.7295 29.0517C24.2198 28.495 23.965 27.7401 23.965 26.7873C23.965 25.8344 24.2198 25.0795 24.7295 24.5228C25.242 23.966 25.9358 23.6876 26.8112 23.6876ZM28.0867 25.1959C27.771 24.7998 27.3458 24.6017 26.8112 24.6017C26.2765 24.6017 25.8514 24.7984 25.5356 25.1917C25.2198 25.5851 25.0619 26.1169 25.0619 26.7873C25.0619 27.4548 25.2198 27.9853 25.5356 28.3786C25.8514 28.772 26.2765 28.9686 26.8112 28.9686C27.3458 28.9686 27.771 28.772 28.0867 28.3786C28.4025 27.9853 28.5604 27.4548 28.5604 26.7873C28.5604 26.1197 28.4025 25.5892 28.0867 25.1959Z" fill="#095AAA"/>
<path d="M40.0116 27.2817C40.0116 28.0961 39.7803 28.7332 39.3177 29.193C38.8579 29.6528 38.218 29.8827 37.3981 29.8827C36.5228 29.8827 35.8303 29.6044 35.3206 29.0476C34.8137 28.488 34.5602 27.7263 34.5602 26.7623C34.5602 25.8122 34.8123 25.0629 35.3165 24.5145C35.8234 23.9632 36.5103 23.6876 37.3773 23.6876C38.0588 23.6876 38.6363 23.8718 39.11 24.2402C39.5836 24.6086 39.869 25.0934 39.9659 25.6945H38.8773C38.7748 25.351 38.592 25.0823 38.3288 24.8884C38.0657 24.6945 37.7499 24.5976 37.3815 24.5976C36.8413 24.5976 36.4189 24.7873 36.1142 25.1668C35.8095 25.5463 35.6572 26.074 35.6572 26.7499C35.6572 27.4396 35.8137 27.9825 36.1267 28.3786C36.4425 28.7747 36.8704 28.9728 37.4106 28.9728C37.8621 28.9728 38.2305 28.8426 38.5158 28.5822C38.8039 28.3218 38.9521 27.9811 38.9604 27.5601L38.9646 27.4604H37.5186V26.6418H40.0116V27.2817Z" fill="#095AAA"/>
<path d="M47.7856 23.6876C48.6582 23.6876 49.3493 23.966 49.859 24.5228C50.3714 25.0795 50.6277 25.8344 50.6277 26.7873C50.6277 27.7401 50.3714 28.495 49.859 29.0517C49.3493 29.6057 48.6582 29.8827 47.7856 29.8827C46.9103 29.8827 46.2164 29.6057 45.704 29.0517C45.1943 28.495 44.9395 27.7401 44.9395 26.7873C44.9395 25.8344 45.1943 25.0795 45.704 24.5228C46.2164 23.966 46.9103 23.6876 47.7856 23.6876ZM49.0612 25.1959C48.7454 24.7998 48.3202 24.6017 47.7856 24.6017C47.251 24.6017 46.8258 24.7984 46.51 25.1917C46.1943 25.5851 46.0364 26.1169 46.0364 26.7873C46.0364 27.4548 46.1943 27.9853 46.51 28.3786C46.8258 28.772 47.251 28.9686 47.7856 28.9686C48.3202 28.9686 48.7454 28.772 49.0612 28.3786C49.377 27.9853 49.5349 27.4548 49.5349 26.7873C49.5349 26.1197 49.377 25.5892 49.0612 25.1959Z" fill="#095AAA"/>
<path d="M60.795 29.783H59.7271V27.182H56.8103V29.783H55.7383V23.7873H56.8103V26.2803H59.7271V23.7873H60.795V29.783Z" fill="#095AAA"/>
<path d="M69.99 28.8772V29.783H66.1092V23.7873H69.99V24.6931H67.1812V26.3136H69.8362V27.1654H67.1812V28.8772H69.99Z" fill="#095AAA"/>
<path d="M76.2474 24.6557V26.7042H77.4565C77.7972 26.7042 78.0618 26.6141 78.2501 26.4341C78.4385 26.254 78.5327 26.002 78.5327 25.6779C78.5327 25.3621 78.4343 25.1128 78.2377 24.93C78.041 24.7471 77.7737 24.6557 77.4358 24.6557H76.2474ZM76.2474 27.5268V29.783H75.1754V23.7873H77.5562C78.2017 23.7873 78.7086 23.9549 79.077 24.2901C79.4454 24.6225 79.6296 25.0768 79.6296 25.6529C79.6296 26.0546 79.5299 26.4092 79.3304 26.7166C79.131 27.0213 78.854 27.2374 78.4994 27.3648L79.8083 29.783H78.5867L77.4067 27.5268H76.2474Z" fill="#095AAA"/>
<path d="M88.6293 28.8772V29.783H84.7486V23.7873H88.6293V24.6931H85.8206V26.3136H88.4756V27.1654H85.8206V28.8772H88.6293Z" fill="#095AAA"/>
<path d="M94.4339 29.8287C94.2649 29.8287 94.1223 29.7719 94.0059 29.6584C93.8923 29.542 93.8356 29.3994 93.8356 29.2304C93.8356 29.0642 93.8923 28.9229 94.0059 28.8066C94.1223 28.6902 94.2649 28.6321 94.4339 28.6321C94.6001 28.6321 94.74 28.6902 94.8535 28.8066C94.9699 28.9229 95.0281 29.0642 95.0281 29.2304C95.0281 29.3994 94.9699 29.542 94.8535 29.6584C94.74 29.7719 94.6001 29.8287 94.4339 29.8287Z" fill="#095AAA"/>
<path d="M102.441 29.8827C101.582 29.8827 100.902 29.6057 100.4 29.0517C99.9019 28.4977 99.6526 27.7415 99.6526 26.7831C99.6526 25.8302 99.9033 25.0768 100.405 24.5228C100.909 23.966 101.587 23.6876 102.441 23.6876C103.139 23.6876 103.727 23.8871 104.206 24.2859C104.686 24.6821 104.959 25.2014 105.025 25.8441H103.97C103.9 25.4673 103.724 25.1654 103.442 24.9383C103.162 24.7111 102.828 24.5976 102.441 24.5976C101.925 24.5976 101.514 24.7956 101.207 25.1917C100.902 25.5851 100.749 26.1155 100.749 26.7831C100.749 27.4562 100.902 27.9894 101.207 28.3828C101.511 28.7761 101.924 28.9728 102.445 28.9728C102.841 28.9728 103.173 28.8717 103.442 28.6695C103.713 28.4645 103.891 28.182 103.974 27.8219H105.025C104.931 28.4645 104.654 28.9686 104.194 29.3343C103.734 29.6999 103.15 29.8827 102.441 29.8827Z" fill="#095AAA"/>
<path d="M112.737 23.6876C113.609 23.6876 114.3 23.966 114.81 24.5228C115.322 25.0795 115.579 25.8344 115.579 26.7873C115.579 27.7401 115.322 28.495 114.81 29.0517C114.3 29.6057 113.609 29.8827 112.737 29.8827C111.861 29.8827 111.167 29.6057 110.655 29.0517C110.145 28.495 109.891 27.7401 109.891 26.7873C109.891 25.8344 110.145 25.0795 110.655 24.5228C111.167 23.966 111.861 23.6876 112.737 23.6876ZM114.012 25.1959C113.696 24.7998 113.271 24.6017 112.737 24.6017C112.202 24.6017 111.777 24.7984 111.461 25.1917C111.145 25.5851 110.987 26.1169 110.987 26.7873C110.987 27.4548 111.145 27.9853 111.461 28.3786C111.777 28.772 112.202 28.9686 112.737 28.9686C113.271 28.9686 113.696 28.772 114.012 28.3786C114.328 27.9853 114.486 27.4548 114.486 26.7873C114.486 26.1197 114.328 25.5892 114.012 25.1959Z" fill="#095AAA"/>
<path d="M126.876 29.783H125.912V25.5283H125.883L124.15 29.7332H123.419L121.687 25.5283H121.657V29.783H120.689V23.7873H121.932L123.768 28.3121H123.801L125.638 23.7873H126.876V29.783Z" fill="#095AAA"/>
</svg>
