<svg width="188" height="42" viewBox="0 0 188 42" fill="none" xmlns="http://www.w3.org/2000/svg">
<rect y="28.9333" width="187.6" height="13.0667" fill="#095AAA"/>
<path d="M21.1513 21.9301V23.3333H0V21.9301H3.16616V0.522144H8.25814V18.7972H17.9851V21.9301H21.1513Z" fill="#095AAA"/>
<path d="M43.9609 21.9301V23.3333H16.9995V21.9301H24.2784C22.4941 20.9075 21.0796 19.5043 20.0351 17.7203C19.0124 15.9363 18.501 13.9565 18.501 11.7809C18.501 8.43046 19.6543 5.63481 21.9609 3.39394C24.2675 1.13131 27.1073 0 30.4802 0C33.8531 0 36.6928 1.13131 38.9994 3.39394C41.3061 5.63481 42.4594 8.43046 42.4594 11.7809C42.4594 13.9565 41.9371 15.9363 40.8926 17.7203C39.8481 19.5043 38.4445 20.9075 36.6819 21.9301H43.9609ZM37.2695 11.8135C37.2695 9.76846 36.6167 8.02797 35.311 6.59208C34.0054 5.15618 32.3951 4.43823 30.4802 4.43823C28.587 4.43823 26.9876 5.15618 25.682 6.59208C24.3763 8.02797 23.7235 9.76846 23.7235 11.8135C23.7235 13.8368 24.3763 15.5664 25.682 17.0023C26.9876 18.4165 28.587 19.1235 30.4802 19.1235C32.3951 19.1235 34.0054 18.4165 35.311 17.0023C36.6167 15.5664 37.2695 13.8368 37.2695 11.8135Z" fill="#095AAA"/>
<path d="M67.1415 21.9301V23.3333H42.6608V21.9301H49.7439C48.0031 20.9075 46.6321 19.526 45.6311 17.7856C44.6519 16.0233 44.1623 14.0326 44.1623 11.8135C44.1623 8.46309 45.3156 5.65657 47.6222 3.39394C49.9506 1.13131 52.7469 0 56.0109 0C59.2968 0 62.1474 1.07692 64.5628 3.23077L61.9189 7.04895C60.8962 6.15696 59.9496 5.54779 59.0792 5.22145C58.2305 4.87335 57.3057 4.6993 56.3047 4.6993C54.368 4.6993 52.736 5.36286 51.4086 6.68998C50.0812 7.99534 49.4175 9.72494 49.4175 11.8788C49.4175 14.0326 50.0485 15.7622 51.3107 17.0676C52.5945 18.3512 54.1178 18.993 55.8804 18.993C57.643 18.993 59.1118 18.6558 60.2869 17.9814V11.7156H65.4115V19.8089C64.6716 20.6356 63.7903 21.3427 62.7676 21.9301H67.1415Z" fill="#095AAA"/>
<path d="M92.7972 21.9301V23.3333H65.8358V21.9301H73.1147C71.3304 20.9075 69.9159 19.5043 68.8714 17.7203C67.8487 15.9363 67.3373 13.9565 67.3373 11.7809C67.3373 8.43046 68.4906 5.63481 70.7972 3.39394C73.1039 1.13131 75.9436 0 79.3165 0C82.6894 0 85.5291 1.13131 87.8358 3.39394C90.1424 5.63481 91.2957 8.43046 91.2957 11.7809C91.2957 13.9565 90.7735 15.9363 89.7289 17.7203C88.6844 19.5043 87.2809 20.9075 85.5183 21.9301H92.7972ZM86.1058 11.8135C86.1058 9.76846 85.453 8.02797 84.1474 6.59208C82.8417 5.15618 81.2314 4.43823 79.3165 4.43823C77.4233 4.43823 75.8239 5.15618 74.5183 6.59208C73.2127 8.02797 72.5599 9.76846 72.5599 11.8135C72.5599 13.8368 73.2127 15.5664 74.5183 17.0023C75.8239 18.4165 77.4233 19.1235 79.3165 19.1235C81.2314 19.1235 82.8417 18.4165 84.1474 17.0023C85.453 15.5664 86.1058 13.8368 86.1058 11.8135Z" fill="#095AAA"/>
<path d="M100.114 21.9301V23.3333H91.4972V21.9301H100.114Z" fill="#095AAA"/>
<path d="M123.67 21.9301V23.3333H115.771V14.359H106.697V23.3333H98.798V21.9301H101.605V0.522144H106.697V10.0513H115.771V0.522144H120.863V21.9301H123.67Z" fill="#095AAA"/>
<path d="M125.163 21.9301V0.522144H141.614V5.05828H130.255V9.75758H140.471V14.0979H130.255V18.8298H141.973V21.9301H145.139V23.3333H121.996V21.9301H125.163Z" fill="#095AAA"/>
<path d="M145.214 21.9301V0.522144H153.864C157.411 0.522144 159.935 1.12043 161.436 2.31702C162.96 3.5136 163.721 5.43901 163.721 8.09324C163.721 11.7483 162.274 14.1088 159.38 15.1748L164.145 21.9301H167.214V23.3333H158.89L153.831 16.0559H150.306V23.3333H142.048V21.9301H145.214ZM154.027 11.6504C155.768 11.6504 156.954 11.3675 157.585 10.8019C158.216 10.2362 158.531 9.34421 158.531 8.12588C158.531 6.88578 158.205 6.0373 157.552 5.58042C156.899 5.12354 155.757 4.89511 154.125 4.89511H150.306V11.6504H154.027Z" fill="#095AAA"/>
<path d="M167.624 21.9301V0.522144H184.075V5.05828H172.716V9.75758H182.932V14.0979H172.716V18.8298H184.434V21.9301H187.6V23.3333H164.458V21.9301H167.624Z" fill="#095AAA"/>
<path d="M25.5263 38.0077V39.1999H20.5333V31.3085H21.9443V38.0077H25.5263Z" fill="white"/>
<path d="M35.288 31.1772C36.4364 31.1772 37.3461 31.5437 38.0169 32.2765C38.6914 33.0093 39.0286 34.0028 39.0286 35.2569C39.0286 36.5111 38.6914 37.5046 38.0169 38.2374C37.3461 38.9666 36.4364 39.3312 35.288 39.3312C34.1359 39.3312 33.2226 38.9666 32.5482 38.2374C31.8773 37.5046 31.5419 36.5111 31.5419 35.2569C31.5419 34.0028 31.8773 33.0093 32.5482 32.2765C33.2226 31.5437 34.1359 31.1772 35.288 31.1772ZM36.9669 33.1624C36.5513 32.641 35.9917 32.3804 35.288 32.3804C34.5844 32.3804 34.0247 32.6392 33.6091 33.1569C33.1935 33.6746 32.9857 34.3746 32.9857 35.2569C32.9857 36.1356 33.1935 36.8338 33.6091 37.3515C34.0247 37.8692 34.5844 38.128 35.288 38.128C35.9917 38.128 36.5513 37.8692 36.9669 37.3515C37.3825 36.8338 37.5904 36.1356 37.5904 35.2569C37.5904 34.3783 37.3825 33.6801 36.9669 33.1624Z" fill="white"/>
<path d="M52.6622 35.9077C52.6622 36.9796 52.3578 37.8181 51.7489 38.4233C51.1437 39.0285 50.3016 39.3312 49.2224 39.3312C48.0703 39.3312 47.1588 38.9647 46.488 38.2319C45.8208 37.4955 45.4872 36.4929 45.4872 35.2241C45.4872 33.9736 45.819 32.9874 46.4825 32.2655C47.1497 31.54 48.0539 31.1772 49.195 31.1772C50.0919 31.1772 50.8521 31.4197 51.4755 31.9046C52.0989 32.3895 52.4745 33.0275 52.6021 33.8187H51.1693C51.0344 33.3666 50.7937 33.0129 50.4474 32.7577C50.101 32.5025 49.6854 32.3749 49.2005 32.3749C48.4896 32.3749 47.9336 32.6246 47.5325 33.1241C47.1315 33.6236 46.931 34.3181 46.931 35.2077C46.931 36.1155 47.137 36.8301 47.5489 37.3515C47.9646 37.8728 48.5279 38.1335 49.2388 38.1335C49.8331 38.1335 50.318 37.9621 50.6935 37.6194C51.0726 37.2767 51.2677 36.8283 51.2786 36.2741L51.2841 36.1429H49.381V35.0655H52.6622V35.9077Z" fill="white"/>
<path d="M62.8943 31.1772C64.0427 31.1772 64.9523 31.5437 65.6232 32.2765C66.2976 33.0093 66.6349 34.0028 66.6349 35.2569C66.6349 36.5111 66.2976 37.5046 65.6232 38.2374C64.9523 38.9666 64.0427 39.3312 62.8943 39.3312C61.7422 39.3312 60.8289 38.9666 60.1544 38.2374C59.4836 37.5046 59.1482 36.5111 59.1482 35.2569C59.1482 34.0028 59.4836 33.0093 60.1544 32.2765C60.8289 31.5437 61.7422 31.1772 62.8943 31.1772ZM64.5732 33.1624C64.1575 32.641 63.5979 32.3804 62.8943 32.3804C62.1906 32.3804 61.631 32.6392 61.2154 33.1569C60.7997 33.6746 60.5919 34.3746 60.5919 35.2569C60.5919 36.1356 60.7997 36.8338 61.2154 37.3515C61.631 37.8692 62.1906 38.128 62.8943 38.128C63.5979 38.128 64.1575 37.8692 64.5732 37.3515C64.9888 36.8338 65.1966 36.1356 65.1966 35.2569C65.1966 34.3783 64.9888 33.6801 64.5732 33.1624Z" fill="white"/>
<path d="M80.0169 39.1999H78.6114V35.7765H74.7724V39.1999H73.3614V31.3085H74.7724V34.5897H78.6114V31.3085H80.0169V39.1999Z" fill="white"/>
<path d="M92.1193 38.0077V39.1999H87.0114V31.3085H92.1193V32.5007H88.4224V34.6335H91.9169V35.7546H88.4224V38.0077H92.1193Z" fill="white"/>
<path d="M100.355 32.4515V35.1476H101.947C102.395 35.1476 102.743 35.0291 102.991 34.7921C103.239 34.5551 103.363 34.2233 103.363 33.7968C103.363 33.3812 103.234 33.053 102.975 32.8124C102.716 32.5718 102.364 32.4515 101.919 32.4515H100.355ZM100.355 36.2304V39.1999H98.9443V31.3085H102.078C102.927 31.3085 103.595 31.5291 104.079 31.9702C104.564 32.4077 104.807 33.0056 104.807 33.764C104.807 34.2926 104.676 34.7593 104.413 35.164C104.151 35.565 103.786 35.8494 103.319 36.0171L105.042 39.1999H103.434L101.881 36.2304H100.355Z" fill="white"/>
<path d="M116.652 38.0077V39.1999H111.544V31.3085H116.652V32.5007H112.955V34.6335H116.45V35.7546H112.955V38.0077H116.652Z" fill="white"/>
<path d="M124.292 39.2601C124.07 39.2601 123.882 39.1853 123.729 39.0358C123.579 38.8827 123.504 38.695 123.504 38.4726C123.504 38.2538 123.579 38.0679 123.729 37.9147C123.882 37.7616 124.07 37.6851 124.292 37.6851C124.511 37.6851 124.695 37.7616 124.844 37.9147C124.997 38.0679 125.074 38.2538 125.074 38.4726C125.074 38.695 124.997 38.8827 124.844 39.0358C124.695 39.1853 124.511 39.2601 124.292 39.2601Z" fill="white"/>
<path d="M134.83 39.3312C133.7 39.3312 132.805 38.9666 132.145 38.2374C131.489 37.5082 131.161 36.5129 131.161 35.2515C131.161 33.9973 131.491 33.0056 132.151 32.2765C132.814 31.5437 133.707 31.1772 134.83 31.1772C135.749 31.1772 136.524 31.4397 137.154 31.9647C137.785 32.4861 138.144 33.1697 138.232 34.0155H136.843C136.752 33.5197 136.52 33.1223 136.148 32.8233C135.78 32.5244 135.341 32.3749 134.83 32.3749C134.152 32.3749 133.611 32.6356 133.206 33.1569C132.805 33.6746 132.604 34.3728 132.604 35.2515C132.604 36.1374 132.805 36.8392 133.206 37.3569C133.607 37.8746 134.15 38.1335 134.836 38.1335C135.357 38.1335 135.795 38.0004 136.148 37.7343C136.505 37.4645 136.739 37.0926 136.848 36.6187H138.232C138.108 37.4645 137.743 38.128 137.138 38.6093C136.533 39.0905 135.764 39.3312 134.83 39.3312Z" fill="white"/>
<path d="M148.382 31.1772C149.53 31.1772 150.44 31.5437 151.111 32.2765C151.785 33.0093 152.122 34.0028 152.122 35.2569C152.122 36.5111 151.785 37.5046 151.111 38.2374C150.44 38.9666 149.53 39.3312 148.382 39.3312C147.23 39.3312 146.316 38.9666 145.642 38.2374C144.971 37.5046 144.636 36.5111 144.636 35.2569C144.636 34.0028 144.971 33.0093 145.642 32.2765C146.316 31.5437 147.23 31.1772 148.382 31.1772ZM150.061 33.1624C149.645 32.641 149.085 32.3804 148.382 32.3804C147.678 32.3804 147.118 32.6392 146.703 33.1569C146.287 33.6746 146.079 34.3746 146.079 35.2569C146.079 36.1356 146.287 36.8338 146.703 37.3515C147.118 37.8692 147.678 38.128 148.382 38.128C149.085 38.128 149.645 37.8692 150.061 37.3515C150.476 36.8338 150.684 36.1356 150.684 35.2569C150.684 34.3783 150.476 33.6801 150.061 33.1624Z" fill="white"/>
<path d="M166.992 39.1999H165.723V33.5999H165.685L163.404 39.1343H162.442L160.161 33.5999H160.123V39.1999H158.849V31.3085H160.484L162.901 37.264H162.945L165.362 31.3085H166.992V39.1999Z" fill="white"/>
</svg>
