<svg width="17" height="17" viewBox="0 0 17 17" fill="none" xmlns="http://www.w3.org/2000/svg">
<path fill-rule="evenodd" clip-rule="evenodd" d="M0.807107 15.3349C0.361354 14.8892 0.361354 14.1665 0.807107 13.7207L13.7208 0.807019C14.1666 0.361266 14.8893 0.361266 15.335 0.807019C15.7808 1.25277 15.7808 1.97548 15.335 2.42123L2.42132 15.3349C1.97557 15.7807 1.25286 15.7807 0.807107 15.3349Z" fill="white"/>
<path fill-rule="evenodd" clip-rule="evenodd" d="M0.807151 0.807107C1.2529 0.361354 1.97561 0.361354 2.42136 0.807107L15.3351 13.7208C15.7808 14.1666 15.7808 14.8893 15.3351 15.335C14.8893 15.7808 14.1666 15.7808 13.7209 15.335L0.807151 2.42132C0.361398 1.97557 0.361398 1.25286 0.807151 0.807107Z" fill="white"/>
</svg>
