<svg width="19" height="15" viewBox="0 0 19 15" fill="none" xmlns="http://www.w3.org/2000/svg">
<path d="M16.2881 8.63991V14.2518C16.2881 14.4544 16.2135 14.6298 16.0642 14.7779C15.915 14.926 15.7382 15 15.5339 15H11.0085V10.5105H7.99152V15H3.46609C3.26182 15 3.08504 14.926 2.93577 14.7779C2.78649 14.6298 2.71185 14.4544 2.71185 14.2518V8.63991C2.71185 8.63211 2.71382 8.62042 2.71775 8.60483C2.72167 8.58924 2.72364 8.57755 2.72364 8.56976L9.5 3.02806L16.2764 8.56976C16.2842 8.58535 16.2881 8.60873 16.2881 8.63991ZM18.9162 7.8332L18.1855 8.69836C18.1227 8.76851 18.0402 8.81138 17.938 8.82697H17.9027C17.8006 8.82697 17.7181 8.79969 17.6552 8.74513L9.5 1.99922L1.3448 8.74513C1.25052 8.80748 1.15624 8.83476 1.06196 8.82697C0.959821 8.81138 0.877326 8.76851 0.814473 8.69836L0.0838043 7.8332C0.0209511 7.75526 -0.00654721 7.66368 0.00130944 7.55846C0.00916609 7.45323 0.0523777 7.36945 0.130944 7.30709L8.60434 0.303975C8.85575 0.101325 9.15431 0 9.5 0C9.84569 0 10.1442 0.101325 10.3957 0.303975L13.2712 2.68901V0.409197C13.2712 0.300078 13.3065 0.210444 13.3773 0.140296C13.448 0.0701481 13.5383 0.035074 13.6483 0.035074H15.911C16.021 0.035074 16.1114 0.0701481 16.1821 0.140296C16.2528 0.210444 16.2881 0.300078 16.2881 0.409197V5.17927L18.8691 7.30709C18.9476 7.36945 18.9908 7.45323 18.9987 7.55846C19.0065 7.66368 18.979 7.75526 18.9162 7.8332Z" fill="white"/>
</svg>
