<svg width="16" height="16" viewBox="0 0 16 16" fill="none" xmlns="http://www.w3.org/2000/svg">
<rect width="16" height="16" rx="2" fill="#095AAA"/>
<path d="M6.82812 2.92188H9.17187C9.36603 2.92188 9.52344 3.07928 9.52344 3.27344V8.4297V12.6485C9.52344 12.8426 9.36603 13 9.17187 13H6.82812C6.63396 13 6.47656 12.8426 6.47656 12.6485C6.47656 12.2826 6.47656 4.65597 6.47656 3.27344C6.47656 3.07928 6.63396 2.92188 6.82812 2.92188ZM7.17968 8.07813H8.82031V3.625H7.17968V8.07813Z" fill="white"/>
<path d="M11.3047 7.14062H13.6484C13.8426 7.14062 14 7.29803 14 7.49219C14 7.78858 14 12.4645 14 12.6484C14 12.8426 13.8426 13 13.6484 13H11.3047C11.1105 13 10.9531 12.8426 10.9531 12.6484C10.9531 12.4641 10.9531 7.79116 10.9531 7.49219C10.9531 7.29803 11.1105 7.14062 11.3047 7.14062ZM11.6562 10.4219H13.2969V7.84375H11.6562V10.4219Z" fill="white"/>
<path d="M2.35156 7.14062H4.69531C4.88947 7.14062 5.04688 7.29803 5.04688 7.49219C5.04688 7.78858 5.04688 12.4645 5.04688 12.6484C5.04688 12.8426 4.88947 13 4.69531 13H2.35156C2.1574 13 2 12.8426 2 12.6484C2 12.4641 2 7.79116 2 7.49219C2 7.29803 2.1574 7.14062 2.35156 7.14062ZM2.70312 10.4219H4.34375V7.84375H2.70312V10.4219Z" fill="white"/>
</svg>
