<svg width="18" height="18" viewBox="0 0 18 18" fill="none" xmlns="http://www.w3.org/2000/svg">
<circle cx="9" cy="9" r="9" fill="#095AAA"/>
<path d="M13.6428 6.50001H11.8571V4.35715C11.8571 4.1599 11.6972 4 11.5 4H4.35715C4.1599 4 4 4.1599 4 4.35715V12.5714C4 13.3604 4.63959 14 5.42858 14H12.5714C13.3604 14 14 13.3604 14 12.5714V6.85713C14 6.6599 13.8401 6.50001 13.6428 6.50001ZM6.85713 5.78571H8.99999C9.19724 5.78571 9.35714 5.9456 9.35714 6.14286C9.35714 6.34011 9.19724 6.50001 8.99999 6.50001H6.85713C6.65988 6.50001 6.49998 6.34011 6.49998 6.14286C6.49998 5.9456 6.6599 5.78571 6.85713 5.78571ZM10.0714 12.5714H5.78571C5.58845 12.5714 5.42856 12.4115 5.42856 12.2143C5.42856 12.017 5.58845 11.8571 5.78571 11.8571H10.0714C10.2687 11.8571 10.4286 12.017 10.4286 12.2143C10.4286 12.4115 10.2687 12.5714 10.0714 12.5714ZM10.0714 11.1428H5.78571C5.58845 11.1428 5.42856 10.9829 5.42856 10.7857C5.42856 10.5884 5.58845 10.4285 5.78571 10.4285H10.0714C10.2687 10.4285 10.4286 10.5884 10.4286 10.7857C10.4286 10.9829 10.2687 11.1428 10.0714 11.1428ZM10.0714 9.71429H5.78571C5.58845 9.71429 5.42856 9.55439 5.42856 9.35714C5.42856 9.15989 5.58845 8.99999 5.78571 8.99999H10.0714C10.2687 8.99999 10.4286 9.15989 10.4286 9.35714C10.4286 9.55439 10.2687 9.71429 10.0714 9.71429ZM10.0714 8.28571H5.78571C5.58845 8.28571 5.42856 8.12581 5.42856 7.92856C5.42856 7.73131 5.58845 7.57141 5.78571 7.57141H10.0714C10.2687 7.57141 10.4286 7.73131 10.4286 7.92856C10.4286 8.12581 10.2687 8.28571 10.0714 8.28571ZM13.2857 12.5714C13.2857 12.9659 12.9659 13.2857 12.5714 13.2857C12.1769 13.2857 11.8571 12.9659 11.8571 12.5714V7.21428H13.2857V12.5714H13.2857Z" fill="white"/>
</svg>
