<svg width="15" height="15" viewBox="0 0 15 15" fill="none" xmlns="http://www.w3.org/2000/svg">
<path d="M7.71982 0.219739C7.78935 0.149961 7.87199 0.0946231 7.963 0.0569111C8.054 0.0191991 8.15156 -0.000142079 8.25007 7.85715e-07H12C12.0985 -0.000142079 12.1961 0.0191991 12.2871 0.0569111C12.3781 0.0946231 12.4607 0.149961 12.5303 0.219739L14.7803 2.46962C14.85 2.53915 14.9054 2.62179 14.9431 2.71279C14.9808 2.80378 15.0001 2.90134 15 2.99985V6.74965C15 6.94914 14.9213 7.13963 14.7803 7.27987L7.28033 14.7795C7.21084 14.8494 7.12822 14.9048 7.03722 14.9427C6.94622 14.9805 6.84864 15 6.75008 15C6.65153 15 6.55394 14.9805 6.46295 14.9427C6.37195 14.9048 6.28933 14.8494 6.21984 14.7795L0.219897 8.77979C0.150188 8.71021 0.0948868 8.62756 0.0571537 8.53658C0.0194216 8.4456 0 8.34807 0 8.24957C0 8.15108 0.0194216 8.05355 0.0571537 7.96257C0.0948868 7.87159 0.150188 7.78894 0.219897 7.71935L7.71982 0.219739ZM10.2353 5.99969C10.4 6.0038 10.5639 5.97491 10.7173 5.91473C10.8707 5.85454 11.0105 5.76428 11.1285 5.64925C11.2464 5.53422 11.3402 5.39675 11.4042 5.24494C11.4683 5.09312 11.5013 4.93003 11.5013 4.76526C11.5014 4.60049 11.4685 4.43738 11.4045 4.28553C11.3406 4.13367 11.2469 3.99615 11.129 3.88105C11.0111 3.76595 10.8713 3.6756 10.718 3.61532C10.5646 3.55505 10.4008 3.52606 10.236 3.53007C9.91381 3.53791 9.6074 3.6714 9.38223 3.90204C9.15706 4.13268 9.03097 4.44219 9.03087 4.76451C9.03077 5.08683 9.15667 5.39643 9.3817 5.6272C9.60673 5.85798 9.91306 5.99165 10.2353 5.99969Z" fill="#095AAA"/>
</svg>
