<svg width="15" height="15" viewBox="0 0 15 15" fill="none" xmlns="http://www.w3.org/2000/svg">
<path d="M15 13.7019L10.526 9.22716C11.247 8.23635 11.6348 7.04222 11.6337 5.81683C11.6337 2.6095 9.02416 0 5.81683 0C2.6095 0 0 2.6095 0 5.81683C0 9.02416 2.6095 11.6337 5.81683 11.6337C7.04222 11.6348 8.23635 11.247 9.22716 10.526L13.7019 15L15 13.7019ZM5.81683 9.79651C5.02962 9.79659 4.26007 9.56321 3.6055 9.12591C2.95092 8.6886 2.44074 8.06701 2.13945 7.33973C1.83817 6.61246 1.75932 5.81217 1.91288 5.04009C2.06644 4.268 2.44551 3.55879 3.00215 3.00215C3.55879 2.44551 4.268 2.06644 5.04009 1.91288C5.81217 1.75932 6.61246 1.83817 7.33973 2.13945C8.06701 2.44074 8.6886 2.95092 9.12591 3.6055C9.56321 4.26007 9.79659 5.02962 9.79651 5.81683C9.79527 6.87192 9.37559 7.88345 8.62952 8.62952C7.88345 9.37559 6.87192 9.79527 5.81683 9.79651Z" fill="#E6E6E6"/>
</svg>
